<svg xmlns="http://www.w3.org/2000/svg" xmlns:xlink="http://www.w3.org/1999/xlink" width="470" zoomAndPan="magnify" viewBox="0 0 352.5 299.999988" height="400" preserveAspectRatio="xMidYMid meet" version="1.0"><defs><g/><clipPath id="02b02d5131"><path d="M 1.46875 2.90625 L 351.730469 2.90625 L 351.730469 297.9375 L 1.46875 297.9375 Z M 1.46875 2.90625 " clip-rule="nonzero"/></clipPath><clipPath id="ed42d2030a"><path d="M 323.972656 2.90625 L 28.527344 2.90625 C 13.632812 2.90625 1.46875 15.074219 1.46875 29.964844 L 1.46875 178.597656 C 1.46875 193.488281 13.632812 205.652344 28.527344 205.652344 L 102.84375 205.652344 L 102.84375 297.515625 L 184.148438 205.652344 L 324.042969 205.652344 C 338.933594 205.652344 351.101562 193.488281 351.101562 178.597656 L 351.101562 29.964844 C 351.03125 15.074219 338.867188 2.90625 323.972656 2.90625 Z M 323.972656 2.90625 " clip-rule="nonzero"/></clipPath></defs><g clip-path="url(#02b02d5131)"><g clip-path="url(#ed42d2030a)"><path fill="#ffffff" d="M 1.46875 2.90625 L 351.03125 2.90625 L 351.03125 297.238281 L 1.46875 297.238281 Z M 1.46875 2.90625 " fill-opacity="1" fill-rule="nonzero"/></g></g><g fill="#0f172a" fill-opacity="1"><g transform="translate(11.4862, 159.690506)"><g><path d="M 67.734375 0 L 44.1875 -42.734375 L 37.578125 -42.734375 L 37.578125 0 L 10 0 L 10 -113.21875 L 56.28125 -113.21875 C 65.207031 -113.21875 72.816406 -111.65625 79.109375 -108.53125 C 85.398438 -105.414062 90.101562 -101.144531 93.21875 -95.71875 C 96.332031 -90.289062 97.890625 -84.242188 97.890625 -77.578125 C 97.890625 -70.046875 95.765625 -63.320312 91.515625 -57.40625 C 87.273438 -51.5 81.015625 -47.3125 72.734375 -44.84375 L 98.859375 0 Z M 37.578125 -62.25 L 54.671875 -62.25 C 59.722656 -62.25 63.507812 -63.484375 66.03125 -65.953125 C 68.5625 -68.429688 69.828125 -71.929688 69.828125 -76.453125 C 69.828125 -80.753906 68.5625 -84.140625 66.03125 -86.609375 C 63.507812 -89.078125 59.722656 -90.3125 54.671875 -90.3125 L 37.578125 -90.3125 Z M 37.578125 -62.25 "/></g></g></g><g fill="#0f172a" fill-opacity="1"><g transform="translate(116.632831, 159.690506)"><g><path d="M 75.640625 0 L 37.578125 -50 L 37.578125 0 L 10 0 L 10 -113.21875 L 37.578125 -113.21875 L 37.578125 -63.546875 L 75.3125 -113.21875 L 107.734375 -113.21875 L 63.875 -57.734375 L 109.34375 0 Z M 75.640625 0 "/></g></g></g><g fill="#0f172a" fill-opacity="1"><g transform="translate(225.86049, 123.740451)"><g><path d="M 16.152344 -0.804688 C 25.296875 -1.589844 31.542969 -7.167969 30.8125 -15.679688 C 30.558594 -18.613281 29.164062 -22.027344 26.101562 -24.660156 C 27.378906 -26.625 27.9375 -28.933594 27.71875 -31.464844 C 27.078125 -38.941406 20.800781 -42.515625 12.484375 -42.207031 C 9.199219 -42.042969 5.859375 -41.117188 2.703125 -40.09375 C 0.726562 -39.460938 -0.5 -37.558594 -0.328125 -35.546875 C -0.300781 -35.257812 -0.214844 -34.917969 -0.132812 -34.636719 C 0.175781 -33.734375 0.699219 -33.027344 1.441406 -32.511719 C 1.527344 -26.085938 1.648438 -15.902344 2.183594 -8.300781 C 1.214844 -7.460938 0.632812 -6.136719 0.753906 -4.699219 C 0.933594 -2.628906 2.527344 -0.914062 4.6875 -0.75 C 7.78125 -0.492188 12.183594 -0.464844 16.152344 -0.804688 Z M 10.796875 -9.210938 C 10.625 -11.917969 10.480469 -14.921875 10.390625 -17.984375 C 11.792969 -17.871094 13.0625 -17.921875 14.558594 -18.050781 C 16.109375 -18.183594 17.585938 -18.542969 18.992188 -19.070312 C 20.992188 -18.023438 22.054688 -16.433594 22.183594 -14.941406 C 22.460938 -11.71875 19.84375 -9.8125 15.414062 -9.433594 C 13.917969 -9.304688 12.359375 -9.230469 10.796875 -9.210938 Z M 10.164062 -26.714844 L 10.074219 -33.195312 C 10.816406 -33.316406 11.558594 -33.4375 12.25 -33.496094 C 16.503906 -33.863281 18.898438 -32.964844 19.117188 -30.4375 C 19.296875 -28.308594 16.003906 -26.867188 13.703125 -26.667969 C 12.4375 -26.558594 11.398438 -26.527344 10.164062 -26.714844 Z M 10.164062 -26.714844 "/></g></g></g><g fill="#0f172a" fill-opacity="1"><g transform="translate(259.276615, 120.873495)"><g><path d="M 13.335938 -0.566406 C 14.3125 -0.648438 15.277344 -0.90625 16.21875 -1.390625 C 18.011719 -2.125 18.957031 -3.945312 18.800781 -5.726562 C 18.582031 -8.316406 16.367188 -9.804688 14.179688 -9.617188 C 13.722656 -9.578125 13.207031 -9.476562 12.761719 -9.265625 C 12.371094 -9.113281 12.019531 -9.144531 11.773438 -9.296875 C 11.414062 -9.4375 11.136719 -9.992188 10.484375 -13.53125 C 9.640625 -17.976562 9.15625 -22.28125 8.792969 -26.480469 C 8.53125 -29.527344 8.328125 -32.582031 8.066406 -35.628906 C 7.929688 -37.238281 7.792969 -38.851562 7.589844 -40.511719 C 7.332031 -42.867188 5.273438 -44.542969 3.03125 -44.351562 C 0.558594 -44.140625 -1.292969 -42.070312 -1.085938 -39.652344 C -0.890625 -37.410156 -0.648438 -35.230469 -0.453125 -32.984375 C -0.265625 -30.800781 -0.0859375 -28.671875 0.101562 -26.488281 C 0.507812 -21.769531 0.976562 -17 1.863281 -12.039062 C 3.214844 -4.390625 6.777344 -0.00390625 13.335938 -0.566406 Z M 13.335938 -0.566406 "/></g></g></g><g fill="#0f172a" fill-opacity="1"><g transform="translate(278.429058, 119.2303)"><g><path d="M 14.3125 -0.648438 C 22.367188 -1.339844 26.085938 -8.613281 25.78125 -15.539062 C 25.605469 -18.941406 23.441406 -23.914062 21.730469 -25.621094 C 20.972656 -26.367188 20 -26.863281 18.953125 -26.945312 C 18.746094 -29.359375 16.980469 -31.003906 13.992188 -30.75 C 4.5 -29.933594 -0.246094 -21.765625 0.476562 -13.367188 C 1.140625 -5.601562 5.6875 0.0898438 14.3125 -0.648438 Z M 9.148438 -13.589844 C 8.742188 -18.304688 10.75 -21.257812 14.21875 -22.019531 C 14.324219 -21.449219 14.546875 -20.890625 14.9375 -20.402344 C 16.171875 -18.828125 17.003906 -16.582031 17.15625 -14.796875 C 17.402344 -11.921875 16.160156 -9.496094 13.285156 -9.25 C 10.871094 -9.042969 9.375 -10.945312 9.148438 -13.589844 Z M 9.148438 -13.589844 "/></g></g></g><g fill="#0f172a" fill-opacity="1"><g transform="translate(306.95642, 116.782778)"><g><path d="M 16.582031 13.640625 C 24.921875 12.925781 29.679688 5.566406 28.230469 -5.898438 C 27.371094 -13.242188 26.84375 -21.421875 25.519531 -27.394531 C 25.035156 -29.667969 23.710938 -31.582031 21.410156 -31.386719 C 19.625 -31.234375 18.703125 -30.515625 18.195312 -29.023438 C 16.648438 -30.167969 14.679688 -30.808594 12.207031 -30.597656 C 4.730469 -29.953125 -0.214844 -23.445312 0.699219 -12.804688 C 1.339844 -5.328125 5.859375 0.078125 13.910156 -0.613281 C 16.613281 -0.847656 18.710938 -2.070312 20.292969 -3.886719 C 20.226562 2.089844 18.832031 4.757812 15.554688 5.039062 C 12.679688 5.285156 10.554688 4.832031 8.40625 2.753906 C 7.523438 1.902344 6.320312 1.425781 5.113281 1.53125 C 4.136719 1.613281 3.191406 2.101562 2.34375 2.984375 C 1.5 3.984375 1.132812 5.117188 1.234375 6.265625 C 1.320312 7.304688 1.8125 8.304688 2.574219 9.050781 C 5.988281 12.40625 10.542969 14.160156 16.582031 13.640625 Z M 9.324219 -13.546875 C 8.90625 -18.433594 10.070312 -21.722656 12.949219 -21.96875 C 14.734375 -22.0625 16.050781 -20.902344 17.035156 -18.902344 L 16.816406 -17.375 C 16.214844 -12.921875 15.183594 -9.414062 12.59375 -9.191406 C 11.15625 -9.070312 9.585938 -10.5 9.324219 -13.546875 Z M 9.324219 -13.546875 "/></g></g></g></svg>